<svg width="46" height="69" viewBox="0 0 46 69" fill="none" xmlns="http://www.w3.org/2000/svg">
<path d="M44.7879 66.344C44.7879 66.6 44.4999 66.76 43.9239 66.824C42.2599 66.632 41.1399 66.152 40.5639 65.384C38.5159 60.52 37.0439 56.264 36.1479 52.616C34.1639 57.544 31.6039 61.352 28.4679 64.04C25.3319 66.728 21.8759 68.072 18.0999 68.072C12.4679 68.072 8.05188 65.576 4.85188 60.584C1.65188 55.592 0.0518751 49 0.0518751 40.808C0.0518751 33.768 1.87588 27.176 5.52388 21.032C7.50788 17.64 9.97188 14.568 12.9159 11.816C15.8599 9.064 19.6679 6.632 24.3399 4.51999C29.0119 2.408 34.2279 0.903996 39.9879 0.00799561L41.6199 2.504L38.4519 10.76C36.6599 10.504 34.7719 10.376 32.7879 10.376C28.3079 10.376 24.4039 11.176 21.0759 12.776C17.7479 14.312 15.2199 16.36 13.4919 18.92C10.2279 23.976 8.59588 29.512 8.59588 35.528C8.59588 43.4 9.74788 49.416 12.0519 53.576C14.4199 57.672 17.2359 59.72 20.4999 59.72C27.0919 59.72 31.8279 54.696 34.7079 44.648C34.4519 42.6 34.3239 40.232 34.3239 37.544C34.3239 34.792 34.6439 31.592 35.2839 27.944L37.5879 26.408L45.4599 29.96C43.4119 33.864 42.3879 39.272 42.3879 46.184C42.3879 53.096 43.1879 59.816 44.7879 66.344Z" fill="#FBCA4E"/>
</svg>
