<svg width="159" height="69" viewBox="0 0 159 69" fill="none" xmlns="http://www.w3.org/2000/svg">
<path d="M45.698 66.344C45.698 66.6 45.41 66.76 44.834 66.824C43.17 66.632 42.05 66.152 41.474 65.384C39.426 60.52 37.954 56.264 37.058 52.616C35.074 57.544 32.514 61.352 29.378 64.04C26.242 66.728 22.786 68.072 19.01 68.072C13.378 68.072 8.96203 65.576 5.76203 60.584C2.56203 55.592 0.962031 49 0.962031 40.808C0.962031 33.768 2.78603 27.176 6.43403 21.032C8.41803 17.64 10.882 14.568 13.826 11.816C16.77 9.064 20.578 6.632 25.25 4.51999C29.922 2.408 35.138 0.903996 40.898 0.00799561L42.53 2.504L39.362 10.76C37.57 10.504 35.682 10.376 33.698 10.376C29.218 10.376 25.314 11.176 21.986 12.776C18.658 14.312 16.13 16.36 14.402 18.92C11.138 23.976 9.50603 29.512 9.50603 35.528C9.50603 43.4 10.658 49.416 12.962 53.576C15.33 57.672 18.146 59.72 21.41 59.72C28.002 59.72 32.738 54.696 35.618 44.648C35.362 42.6 35.234 40.232 35.234 37.544C35.234 34.792 35.554 31.592 36.194 27.944L38.498 26.408L46.37 29.96C44.322 33.864 43.298 39.272 43.298 46.184C43.298 53.096 44.098 59.816 45.698 66.344Z" fill="#FBCA4E"/>
<path d="M53.0863 39.368L55.9663 40.736C56.2303 42.512 56.3623 44.444 56.3623 46.532C56.3623 48.596 56.2423 50.804 56.0023 53.156C55.4983 57.908 54.7783 62.024 53.8423 65.504C53.6983 65.672 53.4463 65.816 53.0863 65.936C52.7263 66.056 52.4383 66.116 52.2223 66.116C52.0063 66.116 51.8983 66.056 51.8983 65.936C53.0263 61.136 53.5903 56.396 53.5903 51.716C53.5903 47.036 53.1223 43.112 52.1863 39.944L53.0863 39.368ZM73.577 48.548L71.849 50.528C73.193 52.16 73.865 54.212 73.865 56.684C73.865 60.164 72.749 62.84 70.517 64.712C69.341 65.696 67.889 66.188 66.161 66.188C64.457 66.188 62.993 65.504 61.769 64.136C60.569 62.768 59.969 60.884 59.969 58.484C59.969 55.964 60.905 53.672 62.777 51.608C63.761 50.528 65.141 49.628 66.917 48.908C68.717 48.188 70.805 47.732 73.181 47.54L73.577 48.548ZM66.701 62.912C68.165 62.912 69.377 62.288 70.337 61.04C71.321 59.792 71.813 58.496 71.813 57.152C71.813 54.248 71.153 52.004 69.833 50.42C67.985 50.732 66.425 51.56 65.153 52.904C63.881 54.248 63.245 55.772 63.245 57.476C63.245 59.18 63.545 60.512 64.145 61.472C64.769 62.432 65.621 62.912 66.701 62.912ZM88.3213 48.296L87.4573 52.436C87.1453 52.34 86.7253 52.292 86.1973 52.292C85.6693 52.292 85.1653 52.46 84.6853 52.796C84.2053 53.132 83.7613 53.708 83.3533 54.524C82.9453 55.34 82.5973 56.192 82.3093 57.08C82.0213 57.968 81.7333 58.916 81.4453 59.924C81.1573 60.932 80.9173 61.772 80.7253 62.444C80.5573 63.092 80.2093 64.124 79.6813 65.54C79.3693 65.9 78.9253 66.08 78.3493 66.08C78.1573 66.08 78.0613 66.032 78.0613 65.936C78.6853 62.888 78.9973 59.864 78.9973 56.864C78.9973 53.84 78.6253 50.936 77.8813 48.152L78.7453 47.54L81.6613 49.088C81.8293 50.816 81.9133 52.34 81.9133 53.66V54.164C83.4013 50.684 85.2853 48.5 87.5653 47.612L88.3213 48.296ZM93.7609 48.944C93.8089 49.664 93.8329 50.408 93.8329 51.176C93.8329 55.352 93.1009 59.948 91.6369 64.964C91.3009 65.3 90.8449 65.468 90.2689 65.468C90.1489 65.468 90.0649 65.456 90.0169 65.432C89.9929 65.408 89.9929 65.372 90.0169 65.324C90.5929 61.892 90.8809 58.736 90.8809 55.856C90.8809 52.976 90.5809 50.384 89.9809 48.08L90.8449 47.54L93.7609 48.944ZM92.2849 45.38C91.6849 45.38 91.2169 45.176 90.8809 44.768C90.5689 44.36 90.4129 43.844 90.4129 43.22C90.4129 42.596 90.6889 42.056 91.2409 41.6C91.7929 41.12 92.5969 40.808 93.6529 40.664C94.3729 41.264 94.7329 41.984 94.7329 42.824C94.7329 43.64 94.4809 44.276 93.9769 44.732C93.4729 45.164 92.9089 45.38 92.2849 45.38ZM101.517 48.152C101.181 51.344 101.013 53.9 101.013 55.82C101.013 59.588 101.721 61.472 103.137 61.472C104.025 61.472 104.949 60.872 105.909 59.672C106.869 58.448 107.709 56.708 108.429 54.452C108.405 54.068 108.393 53.288 108.393 52.112C108.393 50.936 108.501 49.736 108.717 48.512L111.597 47.252L112.497 47.756C111.705 50.084 111.309 52.772 111.309 55.82C111.309 57.14 111.405 58.952 111.597 61.256C111.813 63.56 112.029 65.108 112.245 65.9C112.245 65.972 112.053 66.008 111.669 66.008C111.309 66.008 110.961 65.84 110.625 65.504C109.905 63.776 109.293 61.172 108.789 57.692C107.805 60.068 106.605 62.012 105.189 63.524C103.797 65.036 102.477 65.792 101.229 65.792C99.309 65.792 98.349 64.436 98.349 61.724C98.349 59.876 98.445 58.136 98.637 56.504C98.853 54.872 99.057 53.324 99.249 51.86C99.465 50.396 99.621 49.28 99.717 48.512C99.837 48.392 100.077 48.284 100.437 48.188C100.797 48.068 101.061 48.008 101.229 48.008C101.421 48.008 101.517 48.056 101.517 48.152ZM126.6 48.008L125.448 51.212C124.344 50.492 123.252 50.132 122.172 50.132C120.396 50.132 119.508 50.816 119.508 52.184C119.508 53.12 120.252 54.212 121.74 55.46C122.388 55.988 123.024 56.54 123.648 57.116C125.136 58.484 125.88 59.864 125.88 61.256C125.88 62.336 125.472 63.368 124.656 64.352C124.2 64.88 123.456 65.3 122.424 65.612C121.416 65.948 120.252 66.116 118.932 66.116C117.612 66.116 116.424 65.948 115.368 65.612C115.248 65.516 115.104 65.3 114.936 64.964C114.792 64.604 114.72 64.352 114.72 64.208C114.72 64.064 114.744 63.992 114.792 63.992C114.864 63.992 115.044 64.028 115.332 64.1C116.052 64.292 116.964 64.388 118.068 64.388C119.172 64.388 120.096 64.148 120.84 63.668C121.608 63.188 121.992 62.576 121.992 61.832C121.992 61.088 121.68 60.356 121.056 59.636C120.456 58.916 119.784 58.268 119.04 57.692C118.32 57.116 117.648 56.408 117.024 55.568C116.424 54.704 116.124 53.84 116.124 52.976C116.124 52.208 116.376 51.524 116.88 50.924C117.408 50.3 118.008 49.784 118.68 49.376C120.312 48.416 122.688 47.732 125.808 47.324L126.6 48.008ZM131.034 66.008C130.338 66.008 129.798 65.78 129.414 65.324C129.03 64.868 128.838 64.292 128.838 63.596C128.838 62.876 129.162 62.252 129.81 61.724C130.458 61.172 131.37 60.812 132.546 60.644C133.386 61.292 133.806 62.108 133.806 63.092C133.806 64.052 133.518 64.772 132.942 65.252C132.366 65.756 131.73 66.008 131.034 66.008ZM141.363 48.944C141.411 49.664 141.435 50.408 141.435 51.176C141.435 55.352 140.703 59.948 139.239 64.964C138.903 65.3 138.447 65.468 137.871 65.468C137.751 65.468 137.667 65.456 137.619 65.432C137.595 65.408 137.595 65.372 137.619 65.324C138.195 61.892 138.483 58.736 138.483 55.856C138.483 52.976 138.183 50.384 137.583 48.08L138.447 47.54L141.363 48.944ZM139.887 45.38C139.287 45.38 138.819 45.176 138.483 44.768C138.171 44.36 138.015 43.844 138.015 43.22C138.015 42.596 138.291 42.056 138.843 41.6C139.395 41.12 140.199 40.808 141.255 40.664C141.975 41.264 142.335 41.984 142.335 42.824C142.335 43.64 142.083 44.276 141.579 44.732C141.075 45.164 140.511 45.38 139.887 45.38ZM154.519 40.736L157.399 39.368L158.299 39.944C157.363 43.112 156.895 46.988 156.895 51.572C156.895 56.132 157.435 60.92 158.515 65.936C158.515 66.056 158.419 66.116 158.227 66.116C157.603 66.116 157.111 65.912 156.751 65.504C156.175 63.272 155.623 60.5 155.095 57.188C154.111 59.708 152.899 61.772 151.459 63.38C150.019 64.988 148.651 65.792 147.355 65.792C146.323 65.792 145.543 65.432 145.015 64.712C144.511 63.968 144.259 62.9 144.259 61.508C144.259 60.116 144.559 58.616 145.159 57.008C145.783 55.4 146.875 53.756 148.435 52.076C149.995 50.372 151.915 49.016 154.195 48.008C154.171 47.456 154.159 46.52 154.159 45.2C154.159 43.856 154.279 42.368 154.519 40.736ZM154.663 54.056C154.471 52.232 154.351 50.864 154.303 49.952C152.791 50.624 151.507 51.512 150.451 52.616C148.579 54.608 147.643 56.672 147.643 58.808C147.643 60.584 148.243 61.472 149.443 61.472C150.235 61.472 151.111 60.824 152.071 59.528C153.055 58.232 153.919 56.408 154.663 54.056Z" fill="#BBBBBB"/>
</svg>
